<svg xmlns="http://www.w3.org/2000/svg" width="265" height="65" viewBox="0 0 265 65"><defs><style>.a{fill:#00609c;}.b{fill:#3cb4e5;}.c{fill:#ffa400;}.d{fill:#fff;}.e{fill:#636569;}</style></defs><path class="a" d="M86.05,110.657A32.519,32.519,0,0,0,110.657,86.05H86.05v24.607" transform="translate(-46.471 -46.439)"/><path class="a" d="M0,32.482c0,.745.028,1.486.074,2.222q1.38.12,2.76.12A31.7,31.7,0,0,0,34.5,3.164c0-1.049-.055-2.088-.152-3.109C33.733,0,33.117,0,32.482,0A32.482,32.482,0,0,0,0,32.482Z" transform="translate(0)"/><path class="a" d="M116.031,31.169A32.523,32.523,0,0,0,101.519,10.72,46.566,46.566,0,0,1,96,31.169h20.031" transform="translate(-51.899 -5.789)"/><path class="a" d="M11.14,102.009A32.523,32.523,0,0,0,31.378,116.2V96.31a46.524,46.524,0,0,1-20.238,5.7Z" transform="translate(-6.016 -51.98)"/><path class="b" d="M25.483,25.445H44.258A46.566,46.566,0,0,0,49.777,5,32.266,32.266,0,0,0,34.456.12c.1,1.021.143,2.061.143,3.109A31.7,31.7,0,0,1,2.95,34.888q-1.38,0-2.76-.12A32.3,32.3,0,0,0,5.249,50.062a46.524,46.524,0,0,0,20.238-5.7V25.445" transform="translate(-0.103 -0.065)"/><path class="c" d="M93.986,55.18H73.955A47.052,47.052,0,0,1,55.18,74.1V93.986a32.619,32.619,0,0,0,14.2,0V69.379H93.986a32.619,32.619,0,0,0,0-14.2" transform="translate(-29.8 -29.768)"/><path class="d" d="M73.955,55.18H55.18V74.1A47.052,47.052,0,0,0,73.955,55.18" transform="translate(-29.8 -29.782)"/><path class="e" d="M176.31,20.91l7.819.032c1.306,0,5.294.032,8.137,2.125,2.971,2.189,4.02,5.915,4.02,9.282,0,7.253-3.891,11.039-8.367,11.858a21.852,21.852,0,0,1-4.245.262h-7.359Zm5.128,19.672c.557.032,1.407.064,2,.064,2.157,0,4.02-.166,5.487-1.633,2-2,2.125-5.519,2.125-6.665,0-3.335-1.145-6.407-4.314-7.29a16.253,16.253,0,0,0-5.294-.327Z" transform="translate(-95.317 -11.292)"/><path class="e" d="M235.875,52.17a13.372,13.372,0,0,1-.161-2.254,5.5,5.5,0,0,1-4.935,2.645c-2.387,0-3.463-.685-4.14-1.306a5.11,5.11,0,0,1-1.44-3.624,5.5,5.5,0,0,1,3.5-5.133c2.024-.92,4.931-.92,6.531-.92a6.55,6.55,0,0,0-.225-2.189,2.256,2.256,0,0,0-2.157-1.38,2.2,2.2,0,0,0-1.84.92,2.488,2.488,0,0,0-.359,1.472h-4.738a4.6,4.6,0,0,1,1.863-3.891,8.634,8.634,0,0,1,5-1.338c1.38,0,4.245.23,5.878,2.125a6.406,6.406,0,0,1,1.173,4.061l.037,6.614a19.907,19.907,0,0,0,.391,4.181Zm-5.947-5.1a2.3,2.3,0,0,0,2.355,2.35,2.723,2.723,0,0,0,2.056-.948c.851-1.044.92-2.3.92-4.084C232.149,44.134,229.928,45.114,229.928,47.074Z" transform="translate(-121.744 -18.983)"/><path class="e" d="M266.057,38.659c0-.064,0-1.84-.1-3.008H270.6l.129,2.484a5.722,5.722,0,0,1,5.358-2.875,5.039,5.039,0,0,1,5.032,3.1c.359,1.012.46,1.863.46,4.935v8.918h-4.935V41.957a3.91,3.91,0,0,0-.262-1.794,2.516,2.516,0,0,0-2.35-1.407A3.017,3.017,0,0,0,271.5,40.03a4.563,4.563,0,0,0-.584,2.516V52.2h-4.857Z" transform="translate(-143.781 -19.031)"/><path class="e" d="M317.492,52.17a13.013,13.013,0,0,1-.166-2.254,5.5,5.5,0,0,1-4.935,2.645c-2.383,0-3.463-.685-4.117-1.306a5.106,5.106,0,0,1-1.435-3.624,5.5,5.5,0,0,1,3.5-5.133c2.024-.92,4.935-.92,6.536-.92a6.408,6.408,0,0,0-.23-2.189,2.249,2.249,0,0,0-2.157-1.38,2.208,2.208,0,0,0-1.84.92,2.488,2.488,0,0,0-.359,1.472h-4.737a4.6,4.6,0,0,1,1.863-3.891,8.643,8.643,0,0,1,5-1.338c1.38,0,4.245.23,5.883,2.125a6.525,6.525,0,0,1,1.141,4.052l.051,6.623a19.911,19.911,0,0,0,.4,4.181Zm-5.938-5.1a2.272,2.272,0,0,0,2.35,2.35,2.76,2.76,0,0,0,2.061-.947c.846-1.044.92-2.3.92-4.084C313.775,44.134,311.554,45.114,311.554,47.074Z" transform="translate(-165.88 -18.983)"/><path class="e" d="M345.43,49.33h8.1v3.68h-8.1Z" transform="translate(-186.737 -26.629)"/><path class="e" d="M370.86,20.84H386.1v3.79H375.938v5.818h9.475v3.919h-9.475V44.431h-5.059Z" transform="translate(-200.49 -11.255)"/><path class="e" d="M415.392,52.17a13.372,13.372,0,0,1-.161-2.254,5.5,5.5,0,0,1-4.935,2.645c-2.383,0-3.463-.685-4.117-1.306a5.11,5.11,0,0,1-1.44-3.624,5.5,5.5,0,0,1,3.5-5.133c2.024-.92,4.931-.92,6.531-.92a6.551,6.551,0,0,0-.225-2.189,2.256,2.256,0,0,0-2.157-1.38,2.2,2.2,0,0,0-1.84.92,2.488,2.488,0,0,0-.359,1.472h-4.737a4.6,4.6,0,0,1,1.863-3.891,8.634,8.634,0,0,1,5-1.338c1.38,0,4.245.23,5.878,2.125a6.5,6.5,0,0,1,1.145,4.052l.041,6.623a19.9,19.9,0,0,0,.391,4.181Zm-5.933-5.1a2.3,2.3,0,0,0,2.355,2.35,2.723,2.723,0,0,0,2.056-.947c.851-1.044.92-2.3.92-4.084C411.666,44.134,409.459,45.114,409.459,47.074Z" transform="translate(-218.805 -18.983)"/><path class="e" d="M445.25,40.128c0-.782-.133-3.169-.23-4.14h4.544l.1,3.169c.621-1.38,1.7-3.394,5.621-3.22v4.347c-4.9-.414-5.211,2.116-5.211,4.158v8.137h-4.82Z" transform="translate(-240.577 -19.391)"/><path class="e" d="M472.44,20.91H477.3v9.052a5.556,5.556,0,0,1,4.668-2.222c4.02,0,7.189,3.169,7.189,8.739,0,6.173-3.592,8.33-6.9,8.33a5.457,5.457,0,0,1-4.963-2.645c-.037.52-.069,1.306-.166,2.3H472.44Zm8.2,10.064c-3.56,0-3.56,4.052-3.56,5.1,0,3.739,1.6,5.579,3.79,5.579,3.335,0,3.335-4.14,3.335-5C484.2,35.32,484.137,30.974,480.641,30.974Z" transform="translate(-255.445 -11.292)"/><path class="e" d="M518.851,45.043c0,1.076,0,4.411,3.362,4.411a2.71,2.71,0,0,0,2.879-2.3H529.5a5.547,5.547,0,0,1-1.568,3.592c-1.21,1.274-3.367,1.927-5.786,1.927-1.4,0-4.084-.262-5.814-2.056a8.982,8.982,0,0,1-2.125-6.439c0-2.645.653-5.883,3.431-7.819a8.279,8.279,0,0,1,4.641-1.38,7.1,7.1,0,0,1,6.665,3.983,12.247,12.247,0,0,1,.98,6.048Zm6.14-3.04c0-.75-.064-3.68-2.875-3.68-2.125,0-3,1.766-3.1,3.68Z" transform="translate(-278.003 -18.88)"/><path class="e" d="M554.735,40.128c0-.782-.129-3.169-.225-4.14h4.54l.1,3.169c.621-1.38,1.7-3.394,5.621-3.22v4.347c-4.9-.46-5.193,2.061-5.193,4.117v8.178h-4.839Z" transform="translate(-299.767 -19.391)"/><path class="e" d="M186.468,94.02c-.092-.561-.382-2.806-3.5-2.806-3.9,0-4.6,3.992-4.6,6.688,0,3.049.874,6.347,4.6,6.347a3.514,3.514,0,0,0,2.626-.966,3.183,3.183,0,0,0,.787-1.7h2.465c-.336,3.183-3.275,4.508-6.058,4.508-5.7,0-6.8-5.023-6.8-8.164,0-3.413,1.325-8.5,7.088-8.5,2.3,0,5.519.92,5.814,4.6Z" transform="translate(-95.141 -48.259)"/><path class="e" d="M216.269,111.505a6.082,6.082,0,0,1-.2-1.679,3.643,3.643,0,0,1-3.477,2.038c-2.58,0-3.969-1.458-3.969-3.316a3.7,3.7,0,0,1,1.973-3.3,8.757,8.757,0,0,1,3.905-.741,12.942,12.942,0,0,1,1.522.064c0-1.38,0-2-.4-2.488a2.586,2.586,0,0,0-1.955-.741c-2.13,0-2.24,1.458-2.263,1.9h-2.111a3.588,3.588,0,0,1,.787-2.13,5.073,5.073,0,0,1,3.634-1.21c1.637,0,3.39.515,3.992,1.66a3.316,3.316,0,0,1,.382,1.725l-.092,5.4a26.209,26.209,0,0,0,.179,2.824Zm-1.458-5.519c-.851,0-4.061,0-4.061,2.3,0,.718.46,1.955,2.332,1.955a2.7,2.7,0,0,0,2.4-1.214c.46-.764.5-1.38.538-2.962a9.993,9.993,0,0,0-1.21-.1Z" transform="translate(-112.779 -53.924)"/><path class="e" d="M236.973,101.7l-.023-1.3h2.107l.023,1.84a3.7,3.7,0,0,1,3.615-2.042c1.007,0,4.08.382,4.08,3.836v7.649h-2.153V104.51a2.548,2.548,0,0,0-.607-1.932,2.893,2.893,0,0,0-2-.764c-1.522,0-2.939,1.1-2.939,3.367v6.481h-2.107Z" transform="translate(-128.094 -54.081)"/><path class="e" d="M271.588,103.9a2.22,2.22,0,0,0-2.24-2.355c-2.921,0-2.921,3.39-2.921,4.241,0,2.3.561,4.466,2.806,4.466a2.347,2.347,0,0,0,2.447-2.447h2.13a4.256,4.256,0,0,1-4.553,4.038,5.078,5.078,0,0,1-3.7-1.458,6.109,6.109,0,0,1-1.343-4.31c0-4.687,2.87-6.081,5.115-6.081a4.613,4.613,0,0,1,3.454,1.38,3.928,3.928,0,0,1,.943,2.511Z" transform="translate(-142.831 -53.973)"/><path class="e" d="M291.247,106.3c-.041,2.332.92,4.061,3.22,4.061a2.441,2.441,0,0,0,2.645-2.332h2.111a3.818,3.818,0,0,1-.966,2.355,4.87,4.87,0,0,1-3.882,1.5c-3.542,0-5.225-2.2-5.225-5.768,0-2.222.46-4.061,2.222-5.294a5.4,5.4,0,0,1,3.072-.833c5.059,0,4.935,4.466,4.889,6.306Zm5.947-1.481c.023-1.076-.179-3.321-2.783-3.321a3.017,3.017,0,0,0-3.072,3.321Z" transform="translate(-156.314 -53.969)"/><path class="e" d="M317.865,102.781c0-.759-.046-1.545-.115-2.3h2.134l.041,2.176a3.049,3.049,0,0,1,2.7-2.222,7.165,7.165,0,0,1,1.458-.046v2.065a1.6,1.6,0,0,0-.4-.087,4.6,4.6,0,0,0-.607,0c-2.488,0-3.072,1.481-3.072,3.408v5.979h-2.13Z" transform="translate(-171.772 -54.174)"/><path class="e" d="M349.28,89.91h2.245V106.1H349.28Z" transform="translate(-188.814 -48.524)"/><path class="e" d="M363.2,101.7l-.023-1.3h2.107l.023,1.84a3.693,3.693,0,0,1,3.611-2.042c1.012,0,4.084.382,4.084,3.836v7.649h-2.153V104.51a2.548,2.548,0,0,0-.607-1.932,2.893,2.893,0,0,0-2-.764c-1.527,0-2.939,1.1-2.939,3.367v6.481H363.2Z" transform="translate(-196.334 -54.081)"/><path class="e" d="M393.135,108.242c-.023.851.423,2.042,2.465,2.042a2.3,2.3,0,0,0,1.973-.722,1.744,1.744,0,0,0,.359-1.053c0-1.1-.782-1.3-2.465-1.683-2.355-.538-4.328-1.007-4.328-3.362,0-2.065,1.794-3.413,4.4-3.413,1.412,0,3.385.4,4.057,1.752a3.533,3.533,0,0,1,.294,1.637h-2.153c.064-1.706-1.417-1.84-2.18-1.84-.313,0-2.3,0-2.3,1.614,0,1.03,1.007,1.279,1.591,1.435,3.118.741,3.795.92,4.466,1.55a2.8,2.8,0,0,1,.851,2.084,3.413,3.413,0,0,1-1.522,2.852,6.334,6.334,0,0,1-3.344.764c-2.3,0-4.42-.92-4.4-3.68Z" transform="translate(-211.319 -54)"/><path class="e" d="M414,97.008h2V94.653L418.08,94v3.026H420.6v1.55H418.08v6.752c0,.561,0,1.5,1.5,1.5a4.551,4.551,0,0,0,1.012-.115v1.637a10.18,10.18,0,0,1-1.752.138c-1.927,0-2.847-.561-2.847-2.4V98.558h-2Z" transform="translate(-223.804 -50.733)"/><path class="e" d="M434.39,90h2.534v2.3H434.39Zm.225,4.889h2.107v11.26h-2.107Z" transform="translate(-234.823 -48.573)"/><path class="e" d="M444.87,97.008h2V94.653L448.954,94v3.026h2.511v1.55h-2.511v6.752c0,.561,0,1.5,1.5,1.5a4.5,4.5,0,0,0,1.007-.115v1.637a10.117,10.117,0,0,1-1.748.138c-1.927,0-2.847-.561-2.847-2.4V98.558h-2Z" transform="translate(-240.492 -50.733)"/><path class="e" d="M466.761,100.64v7.244c0,1.1.248,2.493,2.4,2.493a3.036,3.036,0,0,0,2.645-1.256,3.634,3.634,0,0,0,.46-2.111v-6.37h2.171v9.153c0,.225.046,1.481.069,2.107h-2.2l-.046-1.927a3.529,3.529,0,0,1-3.592,2.042c-2.76,0-4.08-1.591-4.08-3.813V100.64Z" transform="translate(-251.206 -54.319)"/><path class="e" d="M490.57,97.008h2V94.653L494.65,94v3.026h2.516v1.55H494.65v6.752c0,.561,0,1.5,1.5,1.5a4.552,4.552,0,0,0,1.012-.115v1.637a10.181,10.181,0,0,1-1.752.138c-1.927,0-2.847-.561-2.847-2.4V98.558h-2Z" transform="translate(-265.236 -50.733)"/><path class="e" d="M510.537,106.3c-.046,2.332.92,4.061,3.22,4.061a2.441,2.441,0,0,0,2.645-2.332h2.111a3.817,3.817,0,0,1-.966,2.355,4.87,4.87,0,0,1-3.882,1.5c-3.542,0-5.225-2.2-5.225-5.768,0-2.222.46-4.061,2.222-5.294a5.413,5.413,0,0,1,3.1-.833c5.06,0,4.935,4.466,4.889,6.306Zm5.942-1.481c.023-1.076-.179-3.321-2.76-3.321a3.017,3.017,0,0,0-3.073,3.321Z" transform="translate(-274.887 -53.968)"/></svg>