<svg xmlns="http://www.w3.org/2000/svg" width="189.35" height="78.948" viewBox="0 0 189.35 78.948"><defs><style>.a{fill:#004a70;}.b{fill:#fff;}</style></defs><g transform="translate(-310.31 -270.945)"><g transform="translate(310.31 277.228)"><path class="a" d="M326.635,278.821a3.252,3.252,0,0,0-3.079-2.113h-.214a3.317,3.317,0,0,0-3.113,2.087l-9.582,21.374a2.8,2.8,0,0,0-.336,1.265,2.475,2.475,0,0,0,.749,1.754,2.446,2.446,0,0,0,1.756.709,2.557,2.557,0,0,0,2.49-1.681l2.067-4.731h12l1.981,4.55a2.773,2.773,0,0,0,2.676,1.866,2.541,2.541,0,0,0,2.48-2.593,2.325,2.325,0,0,0-.295-1.124Zm.642,13.817h-7.81l3.906-8.985Z" transform="translate(-310.31 -276.633)"/><path class="a" d="M356.478,296.144a2.476,2.476,0,0,0-1.646.628,8.714,8.714,0,0,1-6.173,2.36c-4.622,0-8.106-3.753-8.106-8.806,0-4.957,3.484-8.695,8.1-8.695a8.971,8.971,0,0,1,5.912,2.248,2.665,2.665,0,0,0,1.521.523,2.65,2.65,0,0,0,1.712-4.753,14,14,0,0,0-9.1-3c-.186,0-.373,0-.558,0a13.491,13.491,0,0,0-13.177,13.763v.069c0,.146,0,.292,0,.439a13.4,13.4,0,0,0,13.53,13.243c.158.006.313.008.47.008a13.519,13.519,0,0,0,9.186-3.577,2.605,2.605,0,0,0,.878-1.944A2.563,2.563,0,0,0,356.478,296.144Z" transform="translate(-307.764 -276.64)"/><path class="a" d="M380.48,296.144a2.476,2.476,0,0,0-1.646.628,8.723,8.723,0,0,1-6.173,2.36c-4.621,0-8.106-3.753-8.106-8.806,0-4.957,3.484-8.695,8.1-8.695a8.971,8.971,0,0,1,5.912,2.248,2.682,2.682,0,0,0,4.274-2.1,2.693,2.693,0,0,0-1.04-2.134,14.007,14.007,0,0,0-9.1-3c-.188,0-.374,0-.559,0a13.491,13.491,0,0,0-13.177,13.763v.069c0,.147,0,.295,0,.441A13.442,13.442,0,0,0,372.5,304.163c.158.006.314.008.47.008a13.519,13.519,0,0,0,9.185-3.577,2.605,2.605,0,0,0,.878-1.944A2.562,2.562,0,0,0,380.48,296.144Z" transform="translate(-305.286 -276.64)"/><path class="a" d="M402.571,298.792H390.04v-6.105h10.684a2.439,2.439,0,1,0,0-4.879H390.04v-5.885H402.4a2.435,2.435,0,0,0,2.427-2.446,2.469,2.469,0,0,0-2.442-2.438H387.3a2.663,2.663,0,0,0-2.624,2.7v21.315a2.668,2.668,0,0,0,2.659,2.624h15.25a2.435,2.435,0,0,0,2.427-2.447A2.472,2.472,0,0,0,402.571,298.792Z" transform="translate(-302.632 -276.598)"/><path class="a" d="M417.713,287.934c-4.958-1.177-5.841-1.98-5.841-3.729,0-1.583,1.524-2.647,3.781-2.647a10.311,10.311,0,0,1,5.729,1.891,2.619,2.619,0,0,0,1.392.393h.036a2.524,2.524,0,0,0,2.523-2.5,2.454,2.454,0,0,0-1.176-2.161,14.447,14.447,0,0,0-8.418-2.468c-5.434,0-9.228,3.249-9.228,7.974,0,4.987,3.267,6.749,8.914,8.11,4.681,1.08,5.505,2,5.505,3.616,0,1.721-1.634,2.832-4.16,2.832a10.825,10.825,0,0,1-6.982-2.574,2.511,2.511,0,0,0-1.566-.488,2.651,2.651,0,0,0-2.082,1.057,2.534,2.534,0,0,0,.579,3.526,16.583,16.583,0,0,0,9.937,3.33c5.853,0,9.634-3.187,9.634-8.195C426.292,291.718,423.806,289.411,417.713,287.934Z" transform="translate(-300.464 -276.633)"/><path class="a" d="M438.772,287.934c-4.959-1.177-5.841-1.98-5.841-3.729,0-1.583,1.522-2.647,3.781-2.647a10.311,10.311,0,0,1,5.729,1.891,2.62,2.62,0,0,0,1.391.393h.038a2.524,2.524,0,0,0,2.523-2.5,2.462,2.462,0,0,0-1.176-2.161,14.457,14.457,0,0,0-8.419-2.468c-5.431,0-9.226,3.249-9.226,7.974,0,4.987,3.267,6.749,8.914,8.11,4.681,1.08,5.505,2,5.505,3.616,0,1.721-1.632,2.832-4.158,2.832a10.816,10.816,0,0,1-6.982-2.574,2.5,2.5,0,0,0-1.566-.488,2.61,2.61,0,0,0-2.084,1.057,2.532,2.532,0,0,0,.582,3.526,16.573,16.573,0,0,0,9.933,3.33c5.853,0,9.635-3.187,9.635-8.195C447.351,291.718,444.865,289.411,438.772,287.934Z" transform="translate(-298.29 -276.633)"/><g transform="translate(15.127 46.225)"><path class="a" d="M339.03,318.935H325.357a1.356,1.356,0,0,0-1.336,1.345v19.93a1.347,1.347,0,0,0,2.693,0v-8.466h10.941a1.285,1.285,0,1,0,0-2.571H326.714v-7.668H339.03a1.285,1.285,0,0,0,0-2.571Z" transform="translate(-324.021 -318.497)"/><path class="a" d="M359.807,321.579a11.314,11.314,0,0,0-19.024,8.693c-.007.239-.007.48,0,.72a11.312,11.312,0,0,0,11.3,10.921q.2,0,.4-.007A11.318,11.318,0,0,0,363.4,330.182c.007-.241.005-.482,0-.723A11.241,11.241,0,0,0,359.807,321.579Zm.843,8.646v.062c0,5.14-3.665,9.015-8.526,9.015-4.816,0-8.588-3.987-8.588-9.137s3.665-9.016,8.526-9.016A8.748,8.748,0,0,1,360.65,330.225Z" transform="translate(-322.291 -318.538)"/><path class="a" d="M381.65,339.213l1.893-2.6a1.457,1.457,0,0,0,.33-1.349,1.423,1.423,0,0,0-1.739-.9,1.377,1.377,0,0,0-.713.581l-.407.562-.023-.014-.933,1.279-3.03-4.635c3.71-.772,5.9-3.166,5.9-6.574a6.171,6.171,0,0,0-1.806-4.384,8.9,8.9,0,0,0-6.387-2.248h-8.206a1.357,1.357,0,0,0-1.336,1.345l0,19.929a1.347,1.347,0,0,0,2.693,0v-7.641h6.15l4.31,6.551-2.518,3.452a1.453,1.453,0,0,0-.329,1.348,1.421,1.421,0,0,0,1.738.9,1.382,1.382,0,0,0,.713-.584l.415-.569.022.012,1.557-2.129,1.774,2.693a1.447,1.447,0,0,0,1.2.7,1.418,1.418,0,0,0,1.353-1.412,1.311,1.311,0,0,0-.334-.818Zm-1.422-13.52c0,2.635-2.232,4.338-5.684,4.338h-6.663v-8.524h6.754C378.138,321.508,380.228,323.049,380.228,325.692Z" transform="translate(-319.77 -318.499)"/><path class="a" d="M402.082,338.863H389.457v-7.486h11.091a1.285,1.285,0,1,0,0-2.569H389.459v-7.3h12.467a1.285,1.285,0,1,0,0-2.571H388.1a1.356,1.356,0,0,0-1.336,1.345v19.81a1.356,1.356,0,0,0,1.346,1.344h13.972a1.285,1.285,0,0,0,0-2.571Z" transform="translate(-317.543 -318.497)"/><path class="a" d="M423.257,336.089h-.031a1.334,1.334,0,0,0-.945.418,8.89,8.89,0,0,1-6.461,2.789c-4.793.026-8.6-3.953-8.6-9.138,0-5.14,3.64-9.016,8.47-9.016a9.229,9.229,0,0,1,6.439,2.637,1.365,1.365,0,0,0,.931.359,1.4,1.4,0,0,0,1.369-1.369,1.464,1.464,0,0,0-.48-1.023,11.58,11.58,0,0,0-8.231-3.142l-.28,0a11.306,11.306,0,0,0-10.973,11.655c0,.132-.007.267-.007.4a11.187,11.187,0,0,0,11.175,11.177c.051-.006.13,0,.2,0a11.662,11.662,0,0,0,8.3-3.481,1.31,1.31,0,0,0-.875-2.27Z" transform="translate(-315.716 -318.532)"/><path class="a" d="M436.969,319.849a1.687,1.687,0,0,0-1.627-1.11h-.023a1.642,1.642,0,0,0-1.563,1.086l-9.13,19.787a1.732,1.732,0,0,0-.181.771,1.269,1.269,0,0,0,1.252,1.2h.038a1.317,1.317,0,0,0,1.26-.906l2.361-5.208h11.913l2.341,5.135a1.484,1.484,0,0,0,1.305.979,1.319,1.319,0,0,0,1.326-1.289,1.574,1.574,0,0,0-.173-.716Zm-6.44,13.075,4.793-10.5,4.772,10.5Z" transform="translate(-313.652 -318.518)"/><path class="a" d="M455.317,328.875c-5.357-1.092-5.793-2.52-5.793-4.2,0-2.018,1.966-3.483,4.685-3.483a8.6,8.6,0,0,1,5.543,1.9,1.394,1.394,0,0,0,.875.3,1.343,1.343,0,0,0,.792-2.423,11.125,11.125,0,0,0-7.153-2.318c-4.235,0-7.43,2.657-7.43,6.24,0,3.513,2.29,5.474,7.657,6.562,4.714.948,5.609,2.141,5.609,4.073,0,2.178-2,3.7-4.872,3.7a9.5,9.5,0,0,1-6.859-2.667,1.448,1.448,0,0,0-.867-.3,1.36,1.36,0,0,0-1.336,1.356,1.328,1.328,0,0,0,.493,1.017,12.635,12.635,0,0,0,8.326,3.131h.161c4.5,0,7.641-2.628,7.641-6.452C462.789,331.913,460.485,329.927,455.317,328.875Z" transform="translate(-311.41 -318.527)"/><path class="a" d="M479.634,318.935H464.348a1.285,1.285,0,1,0,0,2.571h6.3l0,18.7a1.347,1.347,0,0,0,2.693,0v-18.7h6.3a1.285,1.285,0,0,0,0-2.571Z" transform="translate(-309.665 -318.497)"/></g></g><g transform="translate(323.078 270.945)"><path class="b" d="M497.658,290.7a3.245,3.245,0,0,0-.277-.181c-1.58-.914-3.9.055-5.206,1.086-1.57,1.239-2.443,3.069-4.007,4.352-.771.632-1.325,1.445-2.045,2.111a8.311,8.311,0,0,1-2.618,1.314,12.22,12.22,0,0,0-2.1,1.1c3.125-3.315-.371-6.525-4.149-5.356-1.969.609-3.512,2.045-5.261,3.054-.941.543-4.637,2.646-5.447,1.76-2.161.35-4.268.292-5.86,1.923,1.834.81,3.947-.074,5.928-.008,2.859.095,5.526-1.507,7.943-3.081.83-.541,6.305-3.412,6.034-.746-.192,1.88-4.374,3.76-5.8,4.514-1.9,1.008-5.088,2.38-5.469,4.689,1.738.355,3.2-1.452,4.767-2.137a16.109,16.109,0,0,1,6.323-1.644c1.259-.045,1.919-.75,2.991-1.326.963-.516,2.034-.7,3-1.184,1.618-.8,2.946-2.541,4.372-3.688,1.744-1.4,2.2-3.6,4.6-4.222-6.3,13-21.326,18.817-35,19.341-1.568.06-3.138.067-4.706.042-4.944-.079-9.894.211-14.834,0-5.026-.216-10.016-.944-15.019-1.431-4.949-.482-9.919-.779-14.875-1.2-9.973-.851-19.967-1.236-29.939-1.976-17.29-1.284-34.98.2-52.038,3.141-1.622.279-6.615.868-6.944,1.43-.511.87.322,1.28,1.188,1.255a40.332,40.332,0,0,0,4.923-.865,142.276,142.276,0,0,1,15.273-1.887,277.515,277.515,0,0,1,33.5-.791c16.177.534,32.265,2.483,48.381,3.865,9.435.808,18.925,1.525,28.4,1.468,8.946-.054,18.527-.859,26.712-4.766a39.99,39.99,0,0,0,16.927-15.5C498.163,293.745,499.23,291.859,497.658,290.7Z" transform="translate(-321.883 -268.962)"/><path class="b" d="M465.382,282.345c.131.866-.508,1.678-1.477,2.3a2.971,2.971,0,0,1-3.107-.225,3.685,3.685,0,0,1-1.31-1.989,25.752,25.752,0,0,0-1.04-2.766c-.232-.617-.444-1.242-.665-1.865-.383-1.078-.741-2.166-1.158-3.23a1.984,1.984,0,0,1,.215-1.708,5.627,5.627,0,0,1,.922-1.276,2.628,2.628,0,0,1,3.674.224,3.188,3.188,0,0,1,1.041,1.787,1.945,1.945,0,0,0,.277.594,7.712,7.712,0,0,1,.359.776c.4,1.163.782,2.333,1.183,3.5a6.457,6.457,0,0,0,.388.908A7.02,7.02,0,0,1,465.382,282.345Zm-.858-.44c-.132-.505-.229-1.024-.4-1.515-.27-.761-.586-1.508-.895-2.255a.423.423,0,0,0-.511-.311.438.438,0,0,0-.19.1,4.875,4.875,0,0,1-1.6.566,5.892,5.892,0,0,0-1.108.414c-.438.2-.514.47-.335.916.156.387.313.768.461,1.164.238.637.437,1.291.707,1.913a1.9,1.9,0,0,0,1.707,1.257,2.114,2.114,0,0,0,2.171-2.055,1.958,1.958,0,0,0,0-.2Zm-5.087-9.98a1.434,1.434,0,0,0-1.531.8,2.24,2.24,0,0,0-.235,2.081c.293.919.647,1.818.986,2.722.175.467.341.567.8.444.742-.2,1.487-.4,2.209-.662a1.11,1.11,0,0,0,.84-1.327,1.15,1.15,0,0,0-.116-.3c-.29-.757-.667-1.485-.908-2.256a1.793,1.793,0,0,0-2.042-1.5Z" transform="translate(-307.982 -270.945)"/><path class="b" d="M461.731,290.6a5.719,5.719,0,0,1,.42-1.293,17.9,17.9,0,0,1,1.271-1.677c.067-.086.167-.147.234-.232.846-1.067,1.682-2.144,2.539-3.2q.89-1.1,1.827-2.172a2.913,2.913,0,0,1,3.145-.8,2.821,2.821,0,0,1,1.969,2.564,3.105,3.105,0,0,1-.678,2.151c-1.151,1.365-2.226,2.789-3.4,4.125a15.454,15.454,0,0,1-2.274,2.556c-.373.271-.733.565-1.119.812a1.611,1.611,0,0,1-1.4.192A3.282,3.282,0,0,1,461.731,290.6Zm10.548-6.574a2,2,0,0,0-1.553-1.958,2.1,2.1,0,0,0-2.14.7c-.584.628-1.146,1.276-1.709,1.923-.611.7-.517,1.274.252,1.81.412.288.791.623,1.185.936a3.921,3.921,0,0,0,.632.468.652.652,0,0,0,.911-.14c.01-.013.019-.027.028-.041q.981-1.2,1.946-2.415A1.874,1.874,0,0,0,472.279,284.026Zm-7.5,8.59a2.01,2.01,0,0,0,1.372-.553,20.04,20.04,0,0,0,2.272-2.736.458.458,0,0,0-.028-.645.524.524,0,0,0-.069-.053c-.773-.649-1.559-1.278-2.339-1.915a.462.462,0,0,0-.608-.023,3.05,3.05,0,0,0-.481.45c-.424.477-.822.975-1.252,1.443a3.238,3.238,0,0,0-.872,1.739,1.976,1.976,0,0,0,1.633,2.268A1.915,1.915,0,0,0,464.783,292.616Z" transform="translate(-307.444 -269.901)"/></g></g></svg>