<svg xmlns="http://www.w3.org/2000/svg" width="142.649" height="59.477" viewBox="0 0 142.649 59.477"><defs><style>.a{fill:#fff;}</style></defs><g transform="translate(-310.31 -270.945)"><g transform="translate(310.31 275.678)"><path class="a" d="M322.608,278.3a2.45,2.45,0,0,0-2.32-1.592h-.161a2.5,2.5,0,0,0-2.345,1.573l-7.218,16.1a2.111,2.111,0,0,0-.254.953,1.865,1.865,0,0,0,.564,1.322,1.843,1.843,0,0,0,1.323.534,1.927,1.927,0,0,0,1.876-1.267l1.558-3.564h9.038l1.493,3.428a2.089,2.089,0,0,0,2.016,1.405,1.914,1.914,0,0,0,1.868-1.953,1.752,1.752,0,0,0-.222-.847Zm.484,10.409h-5.884l2.942-6.769Z" transform="translate(-310.31 -276.651)"/><path class="a" d="M351.172,291.334a1.866,1.866,0,0,0-1.24.473,6.565,6.565,0,0,1-4.65,1.778c-3.482,0-6.106-2.828-6.106-6.634,0-3.734,2.625-6.55,6.106-6.55a6.758,6.758,0,0,1,4.454,1.694,2.007,2.007,0,0,0,1.146.394,2,2,0,0,0,1.29-3.581,10.544,10.544,0,0,0-6.855-2.262c-.14,0-.281,0-.421,0a10.164,10.164,0,0,0-9.927,10.369v.052c0,.11,0,.22,0,.331a10.093,10.093,0,0,0,10.193,9.977c.119,0,.236.006.354.006a10.185,10.185,0,0,0,6.92-2.695,1.963,1.963,0,0,0,.662-1.464A1.931,1.931,0,0,0,351.172,291.334Z" transform="translate(-314.473 -276.64)"/><path class="a" d="M375.174,291.334a1.866,1.866,0,0,0-1.24.473,6.571,6.571,0,0,1-4.65,1.778c-3.482,0-6.106-2.828-6.106-6.634,0-3.734,2.625-6.55,6.106-6.55a6.759,6.759,0,0,1,4.454,1.694,2.021,2.021,0,0,0,3.22-1.579,2.029,2.029,0,0,0-.784-1.607,10.553,10.553,0,0,0-6.854-2.262c-.141,0-.282,0-.421,0a10.164,10.164,0,0,0-9.927,10.369v.052c0,.111,0,.222,0,.332a10.126,10.126,0,0,0,10.194,9.975c.119,0,.237.006.354.006a10.184,10.184,0,0,0,6.919-2.695,1.963,1.963,0,0,0,.662-1.464A1.93,1.93,0,0,0,375.174,291.334Z" transform="translate(-318.526 -276.64)"/><path class="a" d="M398.157,293.427h-9.44v-4.6h8.049a1.838,1.838,0,1,0,0-3.675h-8.051v-4.433h9.308a1.835,1.835,0,0,0,1.829-1.843,1.86,1.86,0,0,0-1.839-1.837H386.652a2.006,2.006,0,0,0-1.976,2.034v16.058a2.01,2.01,0,0,0,2,1.976h11.489A1.835,1.835,0,0,0,400,295.264,1.862,1.862,0,0,0,398.157,293.427Z" transform="translate(-322.867 -276.707)"/><path class="a" d="M414.743,285.164c-3.735-.887-4.4-1.492-4.4-2.809,0-1.193,1.148-1.994,2.848-1.994a7.768,7.768,0,0,1,4.316,1.425,1.973,1.973,0,0,0,1.049.3h.027a1.9,1.9,0,0,0,1.9-1.887,1.849,1.849,0,0,0-.886-1.628,10.884,10.884,0,0,0-6.342-1.859c-4.093,0-6.952,2.448-6.952,6.008,0,3.757,2.461,5.084,6.716,6.11,3.527.814,4.147,1.509,4.147,2.724,0,1.3-1.231,2.134-3.134,2.134a8.155,8.155,0,0,1-5.26-1.939,1.891,1.891,0,0,0-1.179-.367,2,2,0,0,0-1.568.8,1.909,1.909,0,0,0,.436,2.656,12.493,12.493,0,0,0,7.486,2.508c4.409,0,7.258-2.4,7.258-6.174C421.206,288.015,419.333,286.277,414.743,285.164Z" transform="translate(-326.412 -276.651)"/><path class="a" d="M435.8,285.164c-3.736-.887-4.4-1.492-4.4-2.809,0-1.193,1.147-1.994,2.848-1.994a7.768,7.768,0,0,1,4.316,1.425,1.974,1.974,0,0,0,1.048.3h.028a1.9,1.9,0,0,0,1.9-1.887,1.855,1.855,0,0,0-.886-1.628,10.891,10.891,0,0,0-6.342-1.859c-4.092,0-6.951,2.448-6.951,6.008,0,3.757,2.461,5.084,6.716,6.11,3.527.814,4.147,1.509,4.147,2.724,0,1.3-1.229,2.134-3.133,2.134a8.148,8.148,0,0,1-5.26-1.939,1.882,1.882,0,0,0-1.179-.367,1.967,1.967,0,0,0-1.57.8,1.908,1.908,0,0,0,.439,2.656,12.485,12.485,0,0,0,7.483,2.508c4.409,0,7.258-2.4,7.258-6.174C442.265,288.015,440.392,286.277,435.8,285.164Z" transform="translate(-329.968 -276.651)"/><g transform="translate(11.396 34.824)"><path class="a" d="M335.328,318.935h-10.3a1.022,1.022,0,0,0-1.007,1.013v15.015a1.014,1.014,0,0,0,2.029,0v-6.378h8.242a.968.968,0,1,0,0-1.937H326.05v-5.776h9.278a.968.968,0,1,0,0-1.937Z" transform="translate(-324.021 -318.605)"/><path class="a" d="M355.113,320.829a8.524,8.524,0,0,0-14.332,6.549c-.005.18-.005.362,0,.543a8.522,8.522,0,0,0,8.509,8.228q.152,0,.3-.005a8.526,8.526,0,0,0,8.223-8.833c0-.181,0-.363,0-.544A8.468,8.468,0,0,0,355.113,320.829Zm.635,6.514v.047a6.469,6.469,0,0,1-6.423,6.791,6.6,6.6,0,0,1-6.47-6.884,6.47,6.47,0,0,1,6.423-6.792A6.59,6.59,0,0,1,355.748,327.342Z" transform="translate(-326.85 -318.538)"/><path class="a" d="M377.591,334.209l1.426-1.956a1.1,1.1,0,0,0,.249-1.017,1.072,1.072,0,0,0-1.31-.676,1.038,1.038,0,0,0-.537.438l-.307.423-.017-.011-.7.963-2.282-3.492c2.8-.582,4.442-2.385,4.442-4.953a4.649,4.649,0,0,0-1.361-3.3,6.707,6.707,0,0,0-4.811-1.694H366.2a1.022,1.022,0,0,0-1.007,1.013l0,15.014a1.014,1.014,0,0,0,2.029,0V329.2h4.633l3.247,4.935-1.9,2.6a1.1,1.1,0,0,0-.248,1.016,1.071,1.071,0,0,0,1.309.677,1.041,1.041,0,0,0,.537-.44l.313-.429.017.009,1.173-1.6L377.642,338a1.09,1.09,0,0,0,.9.525,1.068,1.068,0,0,0,1.019-1.064.988.988,0,0,0-.252-.616Zm-1.071-10.186c0,1.985-1.681,3.268-4.282,3.268h-5.019v-6.421h5.088C374.944,320.871,376.519,322.032,376.519,324.023Z" transform="translate(-330.973 -318.604)"/><path class="a" d="M398.3,333.948h-9.511v-5.639h8.355a.968.968,0,1,0,0-1.936h-8.354v-5.5h9.392a.968.968,0,1,0,0-1.937H387.771a1.022,1.022,0,0,0-1.006,1.013v14.924a1.021,1.021,0,0,0,1.014,1.012H398.3a.968.968,0,0,0,0-1.937Z" transform="translate(-334.616 -318.605)"/><path class="a" d="M418.621,331.775H418.6a1,1,0,0,0-.712.315,6.7,6.7,0,0,1-4.867,2.1,6.591,6.591,0,0,1-6.476-6.884,6.45,6.45,0,0,1,6.381-6.792,6.953,6.953,0,0,1,4.851,1.986,1.028,1.028,0,0,0,.7.27,1.054,1.054,0,0,0,1.031-1.031,1.1,1.1,0,0,0-.362-.77,8.724,8.724,0,0,0-6.2-2.367l-.211,0a8.518,8.518,0,0,0-8.267,8.78c0,.1-.005.2-.005.3a8.428,8.428,0,0,0,8.419,8.42c.038,0,.1,0,.149,0a8.786,8.786,0,0,0,6.252-2.622.987.987,0,0,0-.659-1.71Z" transform="translate(-337.604 -318.549)"/><path class="a" d="M433.88,319.575a1.271,1.271,0,0,0-1.226-.836h-.017a1.237,1.237,0,0,0-1.178.818l-6.879,14.907a1.3,1.3,0,0,0-.136.581.956.956,0,0,0,.943.9h.028a.992.992,0,0,0,.949-.682l1.779-3.924h8.975l1.764,3.868a1.118,1.118,0,0,0,.983.737.994.994,0,0,0,1-.971,1.186,1.186,0,0,0-.131-.539Zm-4.851,9.85,3.61-7.909,3.595,7.909Z" transform="translate(-340.978 -318.572)"/><path class="a" d="M453.061,326.353c-4.036-.823-4.364-1.9-4.364-3.162,0-1.52,1.481-2.624,3.53-2.624A6.478,6.478,0,0,1,456.4,322a1.05,1.05,0,0,0,.659.229,1.011,1.011,0,0,0,.6-1.825,8.381,8.381,0,0,0-5.389-1.746c-3.191,0-5.6,2-5.6,4.7,0,2.646,1.725,4.124,5.768,4.944,3.551.714,4.225,1.613,4.225,3.069,0,1.641-1.5,2.786-3.67,2.786a7.16,7.16,0,0,1-5.167-2.009,1.091,1.091,0,0,0-.653-.225,1.025,1.025,0,0,0-1.007,1.021,1,1,0,0,0,.372.766,9.519,9.519,0,0,0,6.273,2.359h.121c3.389,0,5.757-1.98,5.757-4.861C458.689,328.642,456.954,327.146,453.061,326.353Z" transform="translate(-344.646 -318.557)"/><path class="a" d="M475.547,318.935H464.031a.968.968,0,1,0,0,1.937h4.743l0,14.091a1.014,1.014,0,0,0,2.029,0V320.872h4.742a.968.968,0,0,0,0-1.937Z" transform="translate(-347.499 -318.605)"/></g></g><g transform="translate(319.929 270.945)"><path class="a" d="M454.305,290.564a2.444,2.444,0,0,0-.209-.136c-1.19-.688-2.938.042-3.922.818-1.183.933-1.84,2.312-3.019,3.279-.581.476-1,1.089-1.541,1.59a6.26,6.26,0,0,1-1.972.99,9.206,9.206,0,0,0-1.578.828c2.355-2.5-.279-4.915-3.126-4.035-1.484.459-2.646,1.541-3.964,2.3-.709.409-3.493,1.993-4.1,1.326-1.628.263-3.216.22-4.415,1.449,1.381.61,2.974-.056,4.466-.006,2.153.072,4.163-1.135,5.984-2.321.625-.407,4.75-2.571,4.546-.562-.145,1.416-3.3,2.833-4.366,3.4-1.43.76-3.833,1.793-4.12,3.532,1.309.268,2.414-1.094,3.591-1.61a12.136,12.136,0,0,1,4.763-1.238c.948-.034,1.445-.565,2.253-1,.726-.389,1.533-.531,2.263-.892,1.219-.6,2.219-1.914,3.294-2.779,1.314-1.057,1.658-2.715,3.466-3.181-4.746,9.8-16.066,14.176-26.364,14.571-1.181.045-2.364.051-3.546.032-3.724-.06-7.454.159-11.176,0-3.787-.163-7.546-.711-11.314-1.078-3.729-.363-7.473-.587-11.206-.906-7.514-.641-15.042-.931-22.555-1.489a161.922,161.922,0,0,0-39.2,2.366c-1.222.21-4.984.654-5.231,1.077-.385.656.243.964.9.946a30.378,30.378,0,0,0,3.709-.652,107.184,107.184,0,0,1,11.506-1.421,209.071,209.071,0,0,1,25.235-.6c12.187.4,24.307,1.871,36.448,2.912,7.108.608,14.258,1.149,21.4,1.106,6.74-.041,13.957-.647,20.124-3.591a30.127,30.127,0,0,0,12.752-11.678C454.686,292.859,455.49,291.438,454.305,290.564Z" transform="translate(-321.883 -274.188)"/><path class="a" d="M463.2,279.533c.1.652-.382,1.264-1.113,1.735a2.238,2.238,0,0,1-2.34-.17,2.776,2.776,0,0,1-.987-1.5,19.4,19.4,0,0,0-.784-2.084c-.175-.465-.334-.936-.5-1.4-.288-.812-.559-1.632-.873-2.434a1.5,1.5,0,0,1,.162-1.287,4.24,4.24,0,0,1,.695-.962,1.98,1.98,0,0,1,2.768.169,2.4,2.4,0,0,1,.785,1.346,1.466,1.466,0,0,0,.209.447,5.8,5.8,0,0,1,.27.584c.3.876.589,1.758.891,2.635a4.865,4.865,0,0,0,.293.684A5.289,5.289,0,0,1,463.2,279.533Zm-.647-.332c-.1-.381-.173-.771-.3-1.141-.2-.573-.441-1.136-.674-1.7a.319.319,0,0,0-.385-.234.329.329,0,0,0-.143.077,3.673,3.673,0,0,1-1.207.426,4.441,4.441,0,0,0-.835.312c-.33.153-.387.354-.253.69.117.292.236.578.347.877.18.48.329.972.533,1.441a1.428,1.428,0,0,0,1.286.947,1.593,1.593,0,0,0,1.636-1.548,1.464,1.464,0,0,0,0-.148Zm-3.832-7.519a1.08,1.08,0,0,0-1.154.6,1.687,1.687,0,0,0-.177,1.568c.221.692.487,1.37.743,2.05.132.352.257.427.6.334.559-.147,1.12-.3,1.664-.5a.836.836,0,0,0,.632-1,.864.864,0,0,0-.087-.227c-.219-.57-.5-1.119-.684-1.7a1.351,1.351,0,0,0-1.538-1.13Z" transform="translate(-344.618 -270.945)"/><path class="a" d="M461.731,288.246a4.309,4.309,0,0,1,.317-.974,13.492,13.492,0,0,1,.957-1.263c.051-.065.126-.111.176-.175.637-.8,1.267-1.615,1.912-2.414q.671-.832,1.376-1.637a2.195,2.195,0,0,1,2.37-.6,2.125,2.125,0,0,1,1.484,1.932,2.339,2.339,0,0,1-.511,1.621c-.867,1.028-1.677,2.1-2.564,3.108a11.644,11.644,0,0,1-1.713,1.926c-.281.2-.552.426-.843.612a1.213,1.213,0,0,1-1.055.145A2.473,2.473,0,0,1,461.731,288.246Zm7.947-4.953a1.509,1.509,0,0,0-1.17-1.475,1.578,1.578,0,0,0-1.612.526c-.44.473-.864.962-1.287,1.449-.46.529-.39.96.189,1.364.31.217.6.47.893.7a2.954,2.954,0,0,0,.476.352.491.491,0,0,0,.687-.106c.007-.01.014-.02.021-.031q.739-.9,1.466-1.819A1.412,1.412,0,0,0,469.678,283.293Zm-5.648,6.471a1.515,1.515,0,0,0,1.034-.416,15.1,15.1,0,0,0,1.711-2.061.345.345,0,0,0-.021-.486.4.4,0,0,0-.052-.04c-.583-.489-1.174-.962-1.762-1.443a.348.348,0,0,0-.458-.017,2.3,2.3,0,0,0-.362.339c-.319.359-.619.735-.943,1.087a2.439,2.439,0,0,0-.657,1.31,1.489,1.489,0,0,0,1.23,1.709A1.447,1.447,0,0,0,464.03,289.764Z" transform="translate(-345.497 -272.652)"/></g></g></svg>