<svg xmlns="http://www.w3.org/2000/svg" xmlns:xlink="http://www.w3.org/1999/xlink" width="202" height="65" viewBox="0 0 202 65"><defs><style>.a{clip-path:url(#a);}.b{fill:#00b3e2;}.c{fill:#005ba8;}</style><clipPath id="a"><path d="M0-146.666H202v65H0Z" transform="translate(0 146.666)"/></clipPath></defs><g transform="translate(0 146.666)"><g transform="translate(0 -146.666)"><g class="a"><g transform="translate(0.886 2.481)"><path class="b" d="M-12.439-53.007c0,3.245,0,8.925,4.541,8.925,3.488,0,4.7-3.245,4.7-5.6,0-10.307-19.137-12.66-19.137-29.778,0-8.68,4.7-15.738,13.623-15.738,9.488,0,13.138,7.22,13.381,17.606H-4.736c0-3.245,0-8.681-4.217-8.681-2.513,0-3.973,2.11-3.973,5.273,0,9.817,19.139,13.142,19.139,29.938,0,8.842-5.028,15.9-14.517,15.9-11.271,0-13.542-9.9-13.542-17.848Z" transform="translate(22.332 95.197)"/></g><path class="b" d="M72.664-138.506h9.408v9.41H72.664Z" transform="translate(-40.475 142.123)"/><path class="b" d="M72.664-100.061h9.408v40.732H72.664Z" transform="translate(-40.475 120.716)"/><g transform="translate(44.841 20.005)"><path class="b" d="M-19.986-19.472c-.161-6.33-.728-8.683-2.757-8.683-2.11,0-2.6,2.433-2.6,15.255,0,10.223.811,12.656,3,12.656,2.839,0,3-4.706,3.569-8.925l7.216.242c-.161,7.546-1.7,15.824-11.272,15.985-7.379,0-13.056-5.6-13.056-21.015S-30.2-34.971-22.824-34.971c9.084,0,10.623,7.141,11.272,15.253Z" transform="translate(35.88 34.971)"/></g><g transform="translate(72.332 3.617)"><path class="b" d="M0,0H9.407V31.236H9.57l7.216-14.2h7.786L18.084,29.371l7.625,28.4H16.3L11.678,39.429H11.6L9.407,43.893V57.768H0Z"/></g><g transform="translate(101.852 3.617)"><path class="c" d="M0,0H10.542V24.178H10.7L19.463,0h9.408L21,19.391l9.488,38.378H20.354L14.517,31.886h-.163l-3.812,9.088V57.768H0Z"/></g><path class="c" d="M304.8-138.506H314.2v9.41H304.8Z" transform="translate(-169.777 142.123)"/><path class="c" d="M304.8-100.061H314.2v40.732H304.8Z" transform="translate(-169.777 120.716)"/><g transform="translate(148.482 3.617)"><path class="c" d="M-20.294,0V19.31h-.161a7.26,7.26,0,0,0-5.921-2.922c-6.895,0-10.057,7.465-10.057,20.931,0,13.308,2.434,21.1,9.245,21.1,3.733,0,5.271-1.787,7.136-3.9h.164v3.248h9V0Zm0,50.3a3.291,3.291,0,0,1-2.839,1.3c-2.756,0-3.243-1.866-3.243-14.363,0-12.817.728-14.522,3.485-14.522a2.923,2.923,0,0,1,2.6,1.3Z" transform="translate(36.433)"/></g><g transform="translate(177.436 20.005)"><path class="c" d="M-19.374-15.087c-.324-2.515-.891-5.193-4.138-5.193-1.783,0-2.837,1.7-2.837,3.49,0,6.652,15.246,7.3,15.246,19.715,0,7.057-4.7,12.008-12,12.008-7.707,0-10.87-4.625-11.679-11.845L-27.4,1.95c.647,4.383,1.625,6.169,4.7,6.169A3.113,3.113,0,0,0-19.535,4.79c0-6.408-14.6-6.812-14.6-20.605A10.844,10.844,0,0,1-22.941-27.095c6.567,0,9.811,4.788,10.379,10.873Z" transform="translate(34.781 27.095)"/></g><g transform="translate(189.574 4.419)"><path class="c" d="M-5.439-10.877a4.34,4.34,0,0,1-4.326-4.328,4.313,4.313,0,0,1,4.326-4.33,4.314,4.314,0,0,1,4.326,4.33,4.34,4.34,0,0,1-4.326,4.328m0-8.095A3.771,3.771,0,0,0-9.2-15.205a3.771,3.771,0,0,0,3.765,3.767,3.768,3.768,0,0,0,3.764-3.767,3.756,3.756,0,0,0-3.764-3.767m.087,1.516c1.081,0,1.646.432,1.646,1.276a1.164,1.164,0,0,1-.757,1.148l.887,2.055H-4.639l-.672-1.839h-.606v1.839H-6.89v-4.479Zm-.563,1.99h.52a.648.648,0,0,0,.712-.714c0-.411-.233-.63-.712-.63h-.52Z" transform="translate(9.765 19.535)"/></g></g></g></g></svg>